PathFileType	4	(X/Y/Z)	/Users/itak/Documents/Research/Walk-IL/dataset/trc/00276_00010.trc
DataRate	CameraRate	NumFrames	NumMarkers	Units	OrigDataRate	OrigDataStartFrame	OrigNumFrames
100.000000	100.000000	4	54	mm	100.000000	123	493
Frame#	Time	RPSI			LPSI			L3			STRN			T10			C7			CLAV			RBAK			LBAK			LSHO			LUPA			LAEL			LAOL			LWTS			LWPS			LFRA			LHPS			LHTS			RSHO			RUPA			RAEL			RAOL			RWTS			RWPS			RFRA			RIFD			RHTS			RHPS			RBHD			LFHD			RFHD			LBHD			LHIP			RHIP			RASI			LKNE			LTHI			LANK			LTIP			LTOE			LMT1			LMT5			LHEE			RKNE			RTHI			RANK			RTIP			RTOE			RMT1			RMT5			RHEE			LIFD			LASI			*53			
		X1	Y1	Z1	X2	Y2	Z2	X3	Y3	Z3	X4	Y4	Z4	X5	Y5	Z5	X6	Y6	Z6	X7	Y7	Z7	X8	Y8	Z8	X9	Y9	Z9	X10	Y10	Z10	X11	Y11	Z11	X12	Y12	Z12	X13	Y13	Z13	X14	Y14	Z14	X15	Y15	Z15	X16	Y16	Z16	X17	Y17	Z17	X18	Y18	Z18	X19	Y19	Z19	X20	Y20	Z20	X21	Y21	Z21	X22	Y22	Z22	X23	Y23	Z23	X24	Y24	Z24	X25	Y25	Z25	X26	Y26	Z26	X27	Y27	Z27	X28	Y28	Z28	X29	Y29	Z29	X30	Y30	Z30	X31	Y31	Z31	X32	Y32	Z32	X33	Y33	Z33	X34	Y34	Z34	X35	Y35	Z35	X36	Y36	Z36	X37	Y37	Z37	X38	Y38	Z38	X39	Y39	Z39	X40	Y40	Z40	X41	Y41	Z41	X42	Y42	Z42	X43	Y43	Z43	X44	Y44	Z44	X45	Y45	Z45	X46	Y46	Z46	X47	Y47	Z47	X48	Y48	Z48	X49	Y49	Z49	X50	Y50	Z50	X51	Y51	Z51	X52	Y52	Z52	X53	Y53	Z53	X54	Y54	Z54	

124	1.23	669.9317626953125	966.4441528320312	99.70484924316406	669.8497314453125	956.2353515625	-75.56070709228516	685.6741333007812	1041.157470703125	8.473254203796387	943.9661254882812	1221.470092773438	17.35110664367676	675.7841186523438	1159.512329101562	8.419059753417969	721.9170532226562	1402.49609375	-6.247838497161865	881.9911499023438	1323.414428710938	10.22990036010742	665.5505981445312	1268.04443359375	69.85714721679688	712.8963012695312	1366.4248046875	-109.4982604980469	805.7133178710938	1373.664428710938	-155.8590850830078	770.3494262695312	1261.75146484375	-233.7126312255859	748.5499877929688	1061.132202148438	-252.1846313476562	687.5087890625	1053.643920898438	-190.360595703125	808.9711303710938	832.6915893554688	-214.2913970947266	772.1465454101562	825.9082641601562	-276.0491943359375	751.5962524414062	956.4808349609375	-265.0310363769531	767.2239990234375	737.0260620117188	-274.9620971679688	821.3873291015625	732.9537963867188	-238.1349945068359	782.8892822265625	1384.572143554688	156.5591735839844	771.59912109375	1329.574584960938	224.8810577392578	740.6987915039062	1066.374389648438	281.1580810546875	714.4886474609375	1056.915161132812	190.7303466796875	866.7447509765625	858.2747802734375	242.5270233154297	817.2666015625	846.5072631835938	310.9684143066406	768.054443359375	1002.01953125	298.1509704589844	905.277099609375	678.4826049804688	245.9991912841797	913.8882446289062	750.534423828125	266.5889587402344	859.8580932617188	740.41650390625	310.2895202636719	735.0448608398438	1541.54736328125	83.26901245117188	902.8882446289062	1612.797607421875	-25.22292518615723	902.1228637695312	1593.729858398438	64.71380615234375	738.7338256835938	1559.330444335938	-63.61654663085938	744.9950561523438	909.5037231445312	-169.4207000732422	770.5563354492188	930.6263427734375	203.4856414794922	889.437744140625	938.6190795898438	131.5060882568359	833.4279174804688	448.3364562988281	-172.9741668701172	820.8291625976562	590.4323120117188	-177.9196624755859	450.0465698242188	207.1651153564453	-135.1762084960938	642.0145263671875	321.7906799316406	-166.6924438476562	590.5543823242188	55.3040771484375	-85.17155456542969	536.5352783203125	96.73452758789062	-41.07126617431641	527.4187622070312	113.0912933349609	-151.3663330078125	420.4805908203125	238.9126739501953	-73.46826934814453	928.8699340820312	478.367431640625	151.0071105957031	880.7381591796875	735.5128173828125	197.7945556640625	912.3790283203125	38.66144943237305	116.8856506347656	959.3643798828125	355.3341674804688	132.8305816650391	1111.01513671875	32.33918762207031	70.40304565429688	1053.206909179688	28.10435104370117	29.14619445800781	1015.50830078125	30.87796783447266	139.7810211181641	862.9677124023438	32.14056015014648	65.54119873046875	792.3208618164062	645.7675170898438	-217.0330963134766	878.509521484375	926.6719970703125	-119.2491226196289	nan	nan	nan	
125	1.24	665.3846435546875	965.7208251953125	98.72337341308594	664.636474609375	955.6722412109375	-76.62211608886719	680.57568359375	1040.338500976562	6.976888656616211	938.6447143554688	1220.55126953125	16.56831169128418	670.7722778320312	1158.266479492188	6.59841775894165	716.3046264648438	1401.390625	-7.920947551727295	876.599853515625	1322.483154296875	9.240026473999023	660.0520629882812	1266.727783203125	68.00202941894531	707.9390258789062	1365.301513671875	-111.2451782226562	801.0175170898438	1372.692260742188	-157.0772094726562	766.6993408203125	1260.606811523438	-235.1532440185547	746.1694946289062	1059.98828125	-253.9878082275391	684.648193359375	1051.979125976562	-192.6838989257812	809.0297241210938	832.4520874023438	-216.2178802490234	772.5092163085938	825.2855224609375	-278.1286315917969	750.3801879882812	955.5409545898438	-267.0585021972656	768.8497314453125	736.3280029296875	-277.277587890625	822.9804077148438	732.9686279296875	-240.2323760986328	776.7206420898438	1383.508544921875	155.1255950927734	765.3106689453125	1328.435791015625	223.4078979492188	735.0851440429688	1065.058715820312	279.3135986328125	709.158935546875	1055.611083984375	188.7122497558594	861.4661865234375	857.067138671875	241.1488647460938	811.5772705078125	845.2189331054688	309.3102722167969	762.35009765625	1000.710754394531	296.3365173339844	900.1484985351562	677.315673828125	244.7025451660156	908.5799560546875	749.369140625	265.3968811035156	854.3011474609375	739.1580200195312	308.7770690917969	728.8147583007812	1540.36572265625	81.81829833984375	896.6864013671875	1612.141479492188	-26.30365753173828	895.7863159179688	1593.0830078125	63.62460327148438	732.7840576171875	1558.1513671875	-65.04445648193359	739.4334716796875	908.703125	-170.6135864257812	765.7945556640625	929.8483276367188	202.1508026123047	884.4537353515625	937.537841796875	129.9214477539062	823.1568603515625	446.9887390136719	-173.7669982910156	811.9560546875	589.0979614257812	-178.8681488037109	442.0870361328125	201.9038238525391	-136.0585632324219	632.5737915039062	318.66845703125	-167.398193359375	584.3713989257812	51.49638748168945	-86.14340209960938	529.9571533203125	92.50364685058594	-42.02679443359375	520.6793823242188	108.9333724975586	-152.2332000732422	411.8578186035156	233.1953735351562	-74.06129455566406	926.5381469726562	478.4783325195312	149.9754638671875	876.6753540039062	735.18798828125	196.6200408935547	912.5516967773438	38.71026992797852	116.9001693725586	957.7194213867188	355.6076965332031	132.0138702392578	1111.263427734375	32.16822052001953	70.35984039306641	1053.348876953125	28.08175277709961	29.06551170349121	1015.614318847656	30.84978294372559	139.7080841064453	863.117431640625	32.11504745483398	65.65557098388672	794.9240112304688	645.5475463867188	-219.2946166992188	873.0017700195312	925.426025390625	-120.8245239257812	nan	nan	nan	
126	1.25	660.4179077148438	964.9525146484375	97.70365142822266	659.1099243164062	955.052734375	-77.71123504638672	675.2499389648438	1039.506225585938	5.459620475769043	933.1636962890625	1219.49462890625	15.68846225738525	665.558349609375	1157.024536132812	4.742250919342041	710.599609375	1400.257446289062	-9.646235466003418	871.0999755859375	1321.434814453125	8.163967132568359	654.4891967773438	1265.405029296875	66.12631988525391	702.8463134765625	1364.142211914062	-113.0448379516602	796.1846313476562	1371.630981445312	-158.3641052246094	762.9282836914062	1259.3662109375	-236.6521148681641	743.7200317382812	1058.758911132812	-255.8203735351562	681.6815795898438	1050.192993164062	-195.0601654052734	809.1521606445312	832.2218017578125	-218.2022094726562	772.90478515625	824.6400146484375	-280.2371826171875	749.145263671875	954.5744018554688	-269.1285705566406	770.5892333984375	735.6231079101562	-279.5915222167969	824.6951904296875	733.02783203125	-242.3791198730469	770.5178833007812	1382.391723632812	153.6129150390625	758.9872436523438	1327.250366210938	221.8612976074219	729.4427490234375	1063.714233398438	277.4679260253906	703.763427734375	1054.2626953125	186.7234191894531	856.0681762695312	855.7822875976562	239.7649230957031	805.779052734375	843.8850708007812	307.6612548828125	756.6025390625	999.3687133789062	294.5140075683594	894.8408813476562	676.0570678710938	243.4418487548828	903.118408203125	748.1150512695312	264.2111206054688	848.6021728515625	737.8413696289062	307.2911376953125	722.4874877929688	1539.116088867188	80.25389862060547	890.3837890625	1611.427001953125	-27.50330543518066	889.3461303710938	1592.4033203125	62.42996597290039	726.7421264648438	1556.880981445312	-66.59256744384766	733.3150024414062	907.8546142578125	-171.9080352783203	760.7805786132812	928.9843139648438	200.7522583007812	879.2183837890625	936.37158203125	128.2767181396484	813.0119018554688	445.6435241699219	-174.5638732910156	802.9976806640625	587.745361328125	-179.8615570068359	434.7166442871094	196.0760192871094	-137.1310424804688	623.5425415039062	315.1931762695312	-168.2078857421875	579.0018310546875	47.5815544128418	-86.94913482666016	524.0811767578125	88.01960754394531	-42.94961166381836	514.704345703125	104.36083984375	-153.0632781982422	403.694091796875	226.8642578125	-74.93526458740234	924.03466796875	478.5741882324219	148.9539642333984	872.3821411132812	734.8311157226562	195.4046478271484	912.6990966796875	38.76041412353516	116.9092178344727	955.894775390625	355.8784484863281	131.2118988037109	1111.504638671875	31.9974536895752	70.30696868896484	1053.504760742188	28.0594654083252	28.97848892211914	1015.720764160156	30.83042907714844	139.6403045654297	863.2864379882812	32.13450622558594	65.75868225097656	797.8019409179688	645.31005859375	-221.5999603271484	867.1956787109375	924.112548828125	-122.4671020507812	nan	nan	nan	
127	1.26	655.0736694335938	964.1372680664062	96.65320587158203	653.2564697265625	954.3743896484375	-78.82940673828125	669.6795654296875	1038.653564453125	3.927268028259277	927.5164794921875	1218.303955078125	14.69869232177734	660.124755859375	1155.784912109375	2.856839656829834	704.8011474609375	1399.093505859375	-11.43185043334961	865.4816284179688	1320.2724609375	6.990566253662109	648.83984375	1264.075805664062	64.21932220458984	697.6087646484375	1362.947998046875	-114.9053497314453	791.200927734375	1370.48291015625	-159.7295227050781	759.0173950195312	1258.039916992188	-238.2189178466797	741.1810302734375	1057.447509765625	-257.6888732910156	678.597900390625	1048.290161132812	-197.4919586181641	809.3131103515625	832.0082397460938	-220.2353820800781	773.317138671875	823.9793701171875	-282.370849609375	747.8727416992188	953.5821533203125	-271.2310791015625	772.4259033203125	734.9204711914062	-281.9011535644531	826.5086669921875	733.1406860351562	-244.5675659179688	764.281982421875	1381.225219726562	152.0156402587891	752.6322631835938	1326.02392578125	220.2377471923828	723.7500610351562	1062.346069335938	275.6194763183594	698.2999877929688	1052.8740234375	184.76513671875	850.5443115234375	854.4343872070312	238.3712158203125	799.88525390625	842.521240234375	306.0260009765625	750.810302734375	998.0039672851562	292.6876831054688	889.3450317382812	674.7191162109375	242.2129974365234	897.4992065429688	746.7864379882812	263.0255737304688	842.7616577148438	736.481689453125	305.8315734863281	716.0685424804688	1537.7998046875	78.57437896728516	883.9876708984375	1610.649780273438	-28.82052230834961	882.8095092773438	1591.681518554688	61.1329231262207	720.6143798828125	1555.529052734375	-68.26393127441406	726.5433349609375	906.971923828125	-173.3288726806641	755.5029296875	928.0361328125	199.2918395996094	873.7290649414062	935.1240234375	126.5740356445312	802.9962768554688	444.2846069335938	-175.3624877929688	793.9630126953125	586.3666381835938	-180.9106597900391	427.9410705566406	189.6627655029297	-138.3692626953125	614.9435424804688	311.3463745117188	-169.1305694580078	574.4475708007812	43.63087463378906	-87.60415649414062	518.8974609375	83.28929138183594	-43.84186935424805	509.50146484375	99.36677551269531	-153.8687591552734	396.0263061523438	219.8884582519531	-76.10894012451172	921.32177734375	478.6477966308594	147.9536895751953	867.861572265625	734.4437866210938	194.1584167480469	912.8211669921875	38.80931854248047	116.9132614135742	953.8603515625	356.1455688476562	130.4283142089844	1111.731567382812	31.82104110717773	70.24555969238281	1053.666748046875	28.0331859588623	28.89083862304688	1015.826599121094	30.8135871887207	139.5812683105469	863.4578857421875	32.19221878051758	65.83744812011719	800.9161987304688	645.070068359375	-223.9501647949219	861.08056640625	922.7347412109375	-124.1706008911133	nan	nan	nan	
